<svg width="14" height="18" viewBox="0 0 14 18" fill="none" xmlns="http://www.w3.org/2000/svg">
    <path d="M13.0416 11.9976V2.95829C13.0416 2.03782 12.2954 1.29163 11.3749 1.29163H2.62492C1.70444 1.29163 0.958252 2.03782 0.958252 2.95829V15.0416C0.958252 15.9621 1.70444 16.7083 2.62492 16.7083H2.83325M13.0416 11.9976V12.3035C13.0416 12.9389 12.8348 13.5571 12.4523 14.0655C11.2003 15.7291 9.23542 16.7083 7.14875 16.7083H2.83325M13.0416 11.9976C13.0416 14.1389 10.0338 14.1389 8.74475 13.2824L7.82425 14.1997C6.21258 15.806 5.11246 16.7083 2.83325 16.7083M4.29164 4.62496H9.7083M4.29164 7.99997H9.7083M4.29164 11.375H6.37492" stroke="#505050" stroke-width="1.5" stroke-linecap="round" stroke-linejoin="round"/>
</svg>
