<svg width="12" height="10" viewBox="0 0 12 10" fill="none" xmlns="http://www.w3.org/2000/svg">
    <path d="M3.78591 9.5C4.45331 9.1799 5.20498 9 6 9C6.79502 9 7.54669 9.1799 8.21409 9.5M3.4 7.5H8.6C9.44008 7.5 9.86012 7.5 10.181 7.33651C10.4632 7.1927 10.6927 6.96323 10.8365 6.68099C11 6.36012 11 5.94008 11 5.1V2.9C11 2.05992 11 1.63988 10.8365 1.31901C10.6927 1.03677 10.4632 0.8073 10.181 0.66349C9.86012 0.5 9.44008 0.5 8.6 0.5H3.4C2.55992 0.5 2.13988 0.5 1.81901 0.66349C1.53677 0.8073 1.3073 1.03677 1.16349 1.31901C1 1.63988 1 2.05992 1 2.9V5.1C1 5.94008 1 6.36012 1.16349 6.68099C1.3073 6.96323 1.53677 7.1927 1.81901 7.33651C2.13988 7.5 2.55992 7.5 3.4 7.5Z" stroke="#0D4CE1" stroke-linecap="round" stroke-linejoin="round"/>
</svg>
