<svg width="10" height="10" viewBox="0 0 10 10" fill="none" xmlns="http://www.w3.org/2000/svg">
    <path d="M3.5 7.99998V2.17768C3.5 1.93691 3.5 1.81653 3.5438 1.71889C3.58241 1.63282 3.64458 1.55943 3.72313 1.5072C3.81224 1.44794 3.93099 1.42815 4.16848 1.38857L8.56848 0.655235C8.88897 0.601821 9.04921 0.575114 9.17409 0.621499C9.28368 0.662204 9.37555 0.740024 9.43371 0.841432C9.5 0.956991 9.5 1.11944 9.5 1.44435V6.99998M3.5 7.99998C3.5 8.82841 2.82843 9.49998 2 9.49998C1.17157 9.49998 0.5 8.82841 0.5 7.99998C0.5 7.17155 1.17157 6.49998 2 6.49998C2.82843 6.49998 3.5 7.17155 3.5 7.99998ZM9.5 6.99998C9.5 7.82841 8.82843 8.49998 8 8.49998C7.17157 8.49998 6.5 7.82841 6.5 6.99998C6.5 6.17155 7.17157 5.49998 8 5.49998C8.82843 5.49998 9.5 6.17155 9.5 6.99998Z" stroke="#EE45BC" stroke-linecap="round" stroke-linejoin="round"/>
</svg>
