<svg width="15" height="14" viewBox="0 0 15 14" fill="none" xmlns="http://www.w3.org/2000/svg">
    <path d="M1.5 1V13M11.2718 12.0746L6.2672 8.07091C5.80962 7.70484 5.58083 7.52181 5.498 7.30068C5.42537 7.10681 5.42537 6.89319 5.498 6.69932C5.58083 6.47819 5.80962 6.29516 6.2672 5.92909L11.2718 1.92538C11.9851 1.35475 12.3418 1.06943 12.6419 1.06911C12.903 1.06883 13.1499 1.18751 13.3128 1.39152C13.5 1.6261 13.5 2.08283 13.5 2.99629V11.0037C13.5 11.9172 13.5 12.3739 13.3128 12.6085C13.1499 12.8125 12.903 12.9312 12.6419 12.9309C12.3418 12.9306 11.9851 12.6453 11.2718 12.0746Z" stroke="#303030" stroke-width="1.2" stroke-linecap="round" stroke-linejoin="round"/>
</svg>
