<svg width="15" height="14" viewBox="0 0 15 14" fill="none" xmlns="http://www.w3.org/2000/svg">
    <path d="M13.5 1V13M3.72815 12.0746L8.7328 8.07091C9.19038 7.70484 9.41917 7.52181 9.502 7.30068C9.57463 7.10681 9.57463 6.89319 9.502 6.69932C9.41917 6.47819 9.19038 6.29516 8.7328 5.92909L3.72815 1.92538C3.01486 1.35475 2.65822 1.06943 2.35807 1.06911C2.09703 1.06883 1.8501 1.18751 1.68725 1.39152C1.5 1.6261 1.5 2.08283 1.5 2.99629V11.0037C1.5 11.9172 1.5 12.3739 1.68725 12.6085C1.8501 12.8125 2.09703 12.9312 2.35807 12.9309C2.65822 12.9306 3.01486 12.6453 3.72815 12.0746Z" stroke="#303030" stroke-width="1.2" stroke-linecap="round" stroke-linejoin="round"/>
</svg>
