<svg width="15" height="14" viewBox="0 0 15 14" fill="none" xmlns="http://www.w3.org/2000/svg">
    <path d="M5.94523 0.372457C5.69002 0.481832 5.69783 0.893291 5.95565 1.00267C6.19523 1.10162 6.43742 0.940166 6.43742 0.684957C6.43742 0.421937 6.19002 0.265687 5.94523 0.372457Z" fill="#303030"/>
    <path d="M8.73169 0.385477C8.68481 0.411519 8.63013 0.463602 8.60669 0.500061C8.552 0.583394 8.552 0.786519 8.60409 0.867248C8.79679 1.15891 9.24471 1.03131 9.24471 0.684956C9.24471 0.416727 8.95565 0.247456 8.73169 0.385477Z" fill="#303030"/>
    <path d="M3.15356 2.10683C2.61711 2.211 2.40877 2.88027 2.79159 3.2761C3.12492 3.61725 3.70304 3.5235 3.91919 3.09381C3.94523 3.04433 3.97127 2.92454 3.97909 2.83079C3.9895 2.68496 3.98169 2.63548 3.927 2.51829C3.78377 2.20579 3.47909 2.04433 3.15356 2.10683Z" fill="#303030"/>
    <path d="M5.97127 2.10683C5.42179 2.20839 5.20825 2.88548 5.60409 3.28131C6.02075 3.69798 6.74211 3.43235 6.79159 2.84381C6.82804 2.4011 6.41138 2.0261 5.97127 2.10683Z" fill="#303030"/>
    <path d="M8.78377 2.10683C8.43221 2.17194 8.17961 2.49485 8.20825 2.84381C8.25773 3.43235 8.97909 3.69798 9.39575 3.28131C9.73429 2.94017 9.62752 2.34381 9.19523 2.16152C9.04419 2.09642 8.92179 2.08079 8.78377 2.10683Z" fill="#303030"/>
    <path d="M11.5676 2.10683C11.3541 2.1485 11.1744 2.29694 11.0728 2.51829C11.0181 2.63548 11.0103 2.68496 11.0208 2.83079C11.0494 3.20579 11.2942 3.45058 11.6692 3.47923C11.815 3.48964 11.8645 3.48183 11.9817 3.42714C12.4244 3.22402 12.5442 2.69277 12.2291 2.32037C12.0911 2.15631 11.7968 2.06256 11.5676 2.10683Z" fill="#303030"/>
    <path d="M5.76815 4.60162C5.58586 4.66152 5.47127 4.73704 5.33325 4.88548C5.13794 5.09381 5.052 5.30996 5.052 5.59381C5.052 6.00787 5.27596 6.36464 5.65096 6.54173C5.80721 6.61725 5.84106 6.62246 6.09367 6.62246C6.34627 6.62246 6.38013 6.61725 6.54159 6.53912C6.76294 6.43496 6.93481 6.26308 7.03898 6.04173C7.11711 5.88027 7.12231 5.84642 7.12231 5.59381C7.12231 5.34121 7.11711 5.30735 7.04159 5.1511C6.8619 4.77089 6.50513 4.54954 6.08065 4.55475C5.98169 4.55475 5.83846 4.57558 5.76815 4.60162Z" fill="#303030"/>
    <path d="M8.60409 4.59121C8.31242 4.68235 8.08586 4.87767 7.95825 5.1511C7.88273 5.30735 7.87752 5.34121 7.87752 5.59381C7.87752 5.84642 7.88273 5.88027 7.96086 6.04173C8.06502 6.26308 8.2369 6.43496 8.45825 6.53912C8.61971 6.61725 8.65356 6.62246 8.90617 6.62246C9.15877 6.62246 9.19263 6.61725 9.34888 6.54173C9.88794 6.28652 10.1067 5.63287 9.83065 5.09642C9.76815 4.97662 9.56502 4.76569 9.43742 4.69277C9.20825 4.55735 8.84888 4.51308 8.60409 4.59121Z" fill="#303030"/>
    <path d="M3.11971 4.91673C2.81502 4.99225 2.59888 5.2735 2.59888 5.59381C2.59888 5.99746 2.94784 6.32558 3.34367 6.29173C3.93221 6.24225 4.19784 5.52089 3.78117 5.10423C3.6145 4.94017 3.33846 4.86204 3.11971 4.91673Z" fill="#303030"/>
    <path d="M11.5155 4.92714C11.2109 5.0261 11.0155 5.28652 11.0155 5.59381C11.0155 6.06777 11.4791 6.40631 11.9296 6.25787C12.5103 6.06516 12.5676 5.25266 12.0181 4.97141C11.8801 4.9011 11.6588 4.88027 11.5155 4.92714Z" fill="#303030"/>
    <path d="M0.99471 5.30735C0.90096 5.36464 0.833252 5.49485 0.833252 5.61204C0.833252 5.70319 0.913981 5.8386 0.999919 5.89329C1.08325 5.94798 1.28638 5.94798 1.36711 5.89589C1.65877 5.70319 1.53117 5.25527 1.18481 5.25527C1.12492 5.25527 1.04419 5.27871 0.99471 5.30735Z" fill="#303030"/>
    <path d="M13.6249 5.30735C13.4166 5.43496 13.4218 5.75787 13.6327 5.89589C13.7135 5.94798 13.9166 5.94798 13.9999 5.89329C14.2916 5.70319 14.1614 5.25527 13.815 5.25527C13.7551 5.25527 13.6744 5.27871 13.6249 5.30735Z" fill="#303030"/>
    <path d="M5.77856 7.4011C5.31242 7.57819 5.052 7.94016 5.052 8.40631C5.052 8.69277 5.13794 8.90631 5.33325 9.11464C5.54419 9.3386 5.78898 9.44798 6.09367 9.44798C6.50773 9.44798 6.8645 9.22402 7.04159 8.84902C7.11711 8.69277 7.12231 8.65891 7.12231 8.40631C7.12231 8.15371 7.11711 8.11985 7.03898 7.95839C6.93481 7.73704 6.76294 7.56516 6.54159 7.461C6.38794 7.38808 6.33586 7.37766 6.11971 7.37246C5.96086 7.36725 5.83846 7.37766 5.77856 7.4011Z" fill="#303030"/>
    <path d="M8.53377 7.42714C8.23429 7.55214 8.08065 7.69798 7.94784 7.98183C7.88534 8.11725 7.87752 8.16412 7.87752 8.40631C7.87752 8.65891 7.88273 8.69277 7.95825 8.84902C8.13534 9.22402 8.49211 9.44798 8.90617 9.44798C9.21086 9.44798 9.45565 9.3386 9.66659 9.11464C9.8619 8.90631 9.94784 8.69277 9.94784 8.40631C9.94784 7.99225 9.72388 7.63548 9.34888 7.45839C9.20304 7.38808 9.14575 7.37766 8.93221 7.36985C8.71867 7.36464 8.66398 7.37246 8.53377 7.42714Z" fill="#303030"/>
    <path d="M3.03638 7.75527C2.6744 7.8985 2.49992 8.32558 2.65617 8.68496C2.84627 9.12767 3.43742 9.23965 3.78117 8.8959C4.11971 8.55735 4.01815 7.97923 3.58065 7.76829C3.42961 7.69798 3.19523 7.69017 3.03638 7.75527Z" fill="#303030"/>
    <path d="M11.4947 7.73444C11.3541 7.78131 11.1666 7.94277 11.0963 8.08079C11.0077 8.24746 10.9999 8.54694 11.078 8.70319C11.3437 9.23444 12.1119 9.22402 12.3437 8.68496C12.4999 8.32298 12.3202 7.89069 11.9609 7.75527C11.8124 7.70058 11.6275 7.69277 11.4947 7.73444Z" fill="#303030"/>
    <path d="M1.09888 8.07037C0.955648 8.09902 0.833252 8.25006 0.833252 8.39329C0.833252 8.67194 1.15096 8.84121 1.38273 8.68496C1.69523 8.47402 1.47388 7.98964 1.09888 8.07037Z" fill="#303030"/>
    <path d="M13.7239 8.07037C13.5364 8.10944 13.4218 8.34121 13.4947 8.53131C13.5963 8.80215 14.0181 8.81517 14.1301 8.54954C14.2473 8.26829 14.026 8.00787 13.7239 8.07037Z" fill="#303030"/>
    <path d="M3.00773 10.5756C2.74731 10.7006 2.59888 10.9297 2.59888 11.2032C2.59888 11.6042 2.89315 11.9011 3.29159 11.9011C3.90096 11.9037 4.21086 11.1719 3.79159 10.7292C3.66659 10.5964 3.52856 10.5339 3.32023 10.5235C3.16659 10.5157 3.11711 10.5235 3.00773 10.5756Z" fill="#303030"/>
    <path d="M5.87231 10.5495C5.55721 10.6719 5.36711 10.974 5.40356 11.2865C5.47388 11.8777 6.20825 12.1146 6.60929 11.6771C7.02075 11.2292 6.69263 10.5079 6.08325 10.5183C6.01034 10.5183 5.91398 10.5339 5.87231 10.5495Z" fill="#303030"/>
    <path d="M8.64836 10.56C8.51294 10.6094 8.33846 10.7735 8.27075 10.9193C8.05461 11.3699 8.40096 11.9011 8.90617 11.9011C9.29419 11.9011 9.59367 11.6042 9.59367 11.2214C9.59627 10.9402 9.44783 10.698 9.20304 10.5808C9.06763 10.5157 8.79679 10.5053 8.64836 10.56Z" fill="#303030"/>
    <path d="M11.5103 10.5391C11.3306 10.5938 11.1666 10.7344 11.0806 10.9063C11.0546 10.9558 11.0286 11.0756 11.0208 11.1693C11.0103 11.3152 11.0181 11.3646 11.0728 11.4818C11.1978 11.7527 11.4244 11.9011 11.7083 11.9011C12.4583 11.9011 12.6744 10.8959 11.9921 10.5782C11.8593 10.5157 11.6484 10.4975 11.5103 10.5391Z" fill="#303030"/>
    <path d="M5.94523 13.0001C5.77075 13.0808 5.70044 13.3308 5.80721 13.5053C5.8645 13.599 5.99471 13.6667 6.1119 13.6667C6.20304 13.6667 6.33846 13.586 6.39315 13.5001C6.44784 13.4167 6.44784 13.2136 6.39575 13.1329C6.302 12.9896 6.09888 12.9297 5.94523 13.0001Z" fill="#303030"/>
    <path d="M8.75252 13.0105C8.61971 13.0756 8.56242 13.1693 8.56242 13.3126C8.56242 13.4532 8.6119 13.5443 8.73169 13.6146C8.95565 13.7527 9.24471 13.5834 9.24471 13.3152C9.24471 13.1797 9.16398 13.0495 9.0494 13.0001C8.93221 12.9532 8.85929 12.9532 8.75252 13.0105Z" fill="#303030"/>
</svg>
